HIERARCHY
ROOT Hips
{
 OFFSET 0.000000 0.000000 0.000000
 CHANNELS 6 Xposition Yposition Zposition Yrotation Xrotation Zrotation
 JOINT Chest
 {
  OFFSET 0.000000 9.585900 0.002600
  CHANNELS 3 Yrotation Xrotation Zrotation
  JOINT Chest2
  {
   OFFSET 0.000000 9.601200 -0.005300
   CHANNELS 3 Yrotation Xrotation Zrotation
   JOINT Chest3
   {
    OFFSET 0.000000 9.561800 0.000000
    CHANNELS 3 Yrotation Xrotation Zrotation
    JOINT Chest4
    {
     OFFSET 0.000000 9.552100 0.000000
     CHANNELS 3 Yrotation Xrotation Zrotation
     JOINT Neck
     {
      OFFSET 0.000000 14.453000 0.000000
      CHANNELS 3 Yrotation Xrotation Zrotation
      JOINT Head
      {
       OFFSET 0.000000 8.936500 -0.011300
       CHANNELS 3 Yrotation Xrotation Zrotation
       End Site
       {
        OFFSET 0.000000 17.073600 -0.006000
       }
      }
     }
     JOINT RightCollar
     {
      OFFSET -2.921100 9.558500 0.000000
      CHANNELS 3 Yrotation Xrotation Zrotation
      JOINT RightShoulder
      {
       OFFSET -13.519700 0.000000 0.000000
       CHANNELS 3 Yrotation Xrotation Zrotation
       JOINT RightElbow
       {
        OFFSET 0.000000 -29.696600 0.000000
        CHANNELS 3 Yrotation Xrotation Zrotation
        JOINT RightWrist
        {
         OFFSET 0.000000 -24.004700 0.000000
         CHANNELS 3 Yrotation Xrotation Zrotation
         End Site
         {
          OFFSET 0.000000 -17.728500 0.000000
         }
        }
       }
      }
     }
     JOINT LeftCollar
     {
      OFFSET 2.921100 9.558500 0.000000
      CHANNELS 3 Yrotation Xrotation Zrotation
      JOINT LeftShoulder
      {
       OFFSET 13.519700 0.000000 0.000000
       CHANNELS 3 Yrotation Xrotation Zrotation
       JOINT LeftElbow
       {
        OFFSET 0.000000 -29.696600 0.000000
        CHANNELS 3 Yrotation Xrotation Zrotation
        JOINT LeftWrist
        {
         OFFSET 0.000000 -24.004700 0.000000
         CHANNELS 3 Yrotation Xrotation Zrotation
         End Site
         {
          OFFSET 0.000000 -17.728500 0.000000
         }
        }
       }
      }
     }
    }
   }
  }
 }
 JOINT RightHip
 {
  OFFSET -7.771700 -0.012900 -0.001300
  CHANNELS 3 Yrotation Xrotation Zrotation
  JOINT RightKnee
  {
   OFFSET 0.000000 -40.869800 0.001200
   CHANNELS 3 Yrotation Xrotation Zrotation
   JOINT RightAnkle
   {
    OFFSET 0.000000 -39.717900 0.002100
    CHANNELS 3 Yrotation Xrotation Zrotation
    JOINT RightToe
    {
     OFFSET 0.000000 -4.965400 11.033500
     CHANNELS 3 Yrotation Xrotation Zrotation
     End Site
     {
      OFFSET 0.000000 -1.423100 5.872300
     }
    }
   }
  }
 }
 JOINT LeftHip
 {
  OFFSET 7.771700 -0.012900 -0.001300
  CHANNELS 3 Yrotation Xrotation Zrotation
  JOINT LeftKnee
  {
   OFFSET 0.000000 -40.869800 0.001200
   CHANNELS 3 Yrotation Xrotation Zrotation
   JOINT LeftAnkle
   {
    OFFSET 0.000000 -39.717900 0.002100
    CHANNELS 3 Yrotation Xrotation Zrotation
    JOINT LeftToe
    {
     OFFSET 0.000000 -4.965400 11.033500
     CHANNELS 3 Yrotation Xrotation Zrotation
     End Site
     {
      OFFSET 0.000000 -1.423100 5.872300
     }
    }
   }
  }
 }
}
MOTION
Frames: 15
Frame Time: 0.008333
0.000000 85.388000 0.000000 0.000000 -5.767877 0.000000 0.000000 11.653817 0.000000 0.000000 -5.885947 0.000000 0.000000 -0.000000 0.000000 0.000000 -0.000000 0.000000 0.000000 12.528835 0.000000 0.000000 0.711642 0.000000 0.000000 -0.000000 0.000000 0.000000 0.000000 -90.000000 0.000000 -2.309062 0.000000 0.000000 2.309062 0.000000 0.000000 -0.000000 0.000000 0.000000 -0.000000 90.000000 0.000000 -2.309062 0.000000 0.000000 2.309062 0.000000 0.000000 8.520406 0.000000 0.000000 1.905762 0.000000 -0.000000 -4.658285 0.000000 0.000000 -0.000000 0.000000 0.000000 8.520406 0.000000 0.000000 1.905762 0.000000 -0.000000 -4.658285 0.000000 0.000000 -0.000000 0.000000
-7.561501 52.215840 29.327399 171.786281 -38.683439 -1.579061 4.541693 24.528643 2.747234 0.554467 3.871485 0.498967 0.905511 6.195616 0.818159 3.424236 20.296537 3.165566 1.494075 15.827895 0.066345 2.757683 -6.389585 -0.414200 -6.030685 -0.081925 -3.327665 -5.301429 -9.182753 1.401123 -87.974670 -43.428225 125.329467 3.498518 7.961449 58.916533 -7.413002 1.436547 1.531679 13.950045 -10.379635 1.087667 89.547193 -38.054368 -133.341318 -0.563227 10.277813 -56.497802 -2.742250 -42.787095 2.626839 -128.643441 85.085423 -123.816423 0.572977 -10.014658 -2.976006 0.656528 -1.008391 0.279296 0.475807 -39.083906 4.900009 73.302027 83.743931 62.674363 -6.003608 -12.982953 10.239604 0.124147 1.321916 0.064933
-7.556040 52.213169 29.326663 171.768902 -38.675520 -1.570369 4.595058 24.610700 2.757311 0.562347 3.895317 0.499416 0.917846 6.231374 0.818965 3.455394 20.343411 3.163475 1.454979 15.814569 0.094752 2.674898 -6.415581 -0.347550 -6.068046 -0.062942 -3.297247 -5.283744 -9.241129 1.385872 -88.112940 -43.409849 125.593980 3.564036 8.066251 59.413328 -7.454681 1.410658 1.558193 13.748390 -10.419179 1.078107 89.634584 -38.041562 -133.568158 -0.555804 10.293663 -56.492335 -2.775002 -42.798195 2.645146 -128.753801 85.087252 -123.927448 0.572860 -10.017944 -3.002697 0.665731 -1.011056 0.281130 0.513244 -39.092213 4.902357 73.394957 83.744613 62.768255 -6.015691 -12.991940 10.257757 0.109184 1.321660 0.061235
-7.551043 52.209064 29.327307 171.767320 -38.655088 -1.566323 4.635033 24.672415 2.761932 0.570137 3.916193 0.499606 0.930087 6.262715 0.819374 3.487201 20.383907 3.161176 1.418356 15.800941 0.126991 2.595216 -6.442149 -0.274675 -6.102648 -0.020263 -3.266372 -5.280459 -9.292180 1.368063 -88.277377 -43.412899 125.871341 3.647694 8.151841 59.929972 -7.499583 1.393789 1.577149 13.532588 -10.445331 1.075030 89.696264 -38.024978 -133.750032 -0.523401 10.313320 -56.460094 -2.810065 -42.820805 2.656426 -128.904091 85.093972 -124.076622 0.565796 -10.030656 -3.026130 0.675171 -1.005742 0.281978 0.542185 -39.115064 4.891066 73.401363 83.748589 62.788584 -6.024703 -12.996722 10.251563 0.108023 1.327224 0.064915
-7.546168 52.204966 29.327952 171.762418 -38.635106 -1.557778 4.677131 24.724921 2.764387 0.577714 3.934384 0.499671 0.942047 6.289954 0.819599 3.518856 20.418577 3.159201 1.383840 15.788327 0.162187 2.518400 -6.466836 -0.197026 -6.132774 0.044686 -3.237166 -5.280180 -9.330961 1.347539 -88.481232 -43.411148 126.154629 3.762287 8.240922 60.462746 -7.545044 1.388440 1.589153 13.304147 -10.463974 1.070901 89.727783 -38.011287 -133.877097 -0.475800 10.329985 -56.410020 -2.841201 -42.847339 2.669303 -129.068084 85.096716 -124.244744 0.561218 -10.033425 -3.049756 0.680716 -1.009143 0.285367 0.568310 -39.136953 4.878664 73.424270 83.749353 62.819324 -6.027433 -13.000283 10.252316 0.106436 1.328525 0.067088
-7.542718 52.200975 29.328542 171.775182 -38.615288 -1.552101 4.680796 24.740193 2.752984 0.602366 3.980276 0.495284 0.953897 6.313550 0.819889 3.551106 20.448065 3.158369 1.348942 15.776471 0.200563 2.439825 -6.490061 -0.113255 -6.158688 0.126327 -3.209305 -5.273680 -9.353121 1.325752 -88.721717 -43.378314 126.430736 3.924135 8.354726 61.001625 -7.589727 1.397222 1.598146 13.063594 -10.482055 1.059264 89.725928 -37.997900 -133.944177 -0.433742 10.342112 -56.351068 -2.843874 -42.868883 2.650930 -129.256631 85.107022 -124.413667 0.539814 -10.051730 -3.073480 0.693042 -0.997694 0.289834 0.575939 -39.154645 4.862361 73.536767 83.713981 62.921791 -6.054344 -13.002047 10.268588 0.092366 1.332087 0.058357
-7.542681 52.196944 29.329105 171.806634 -38.593652 -1.539921 4.660748 24.752614 2.721432 0.625423 4.019373 0.488590 0.965200 6.333806 0.820144 3.582612 20.472889 3.158299 1.313585 15.765356 0.241738 2.359347 -6.511894 -0.023989 -6.177338 0.218564 -3.180817 -5.260007 -9.359545 1.300076 -88.933054 -43.480304 126.739540 4.001865 8.376723 61.434366 -7.626721 1.420145 1.606725 12.804517 -10.502319 1.039690 89.692115 -37.982110 -133.949954 -0.407068 10.354558 -56.286130 -2.852290 -42.894690 2.608260 -129.476596 85.117815 -124.615952 0.488856 -10.050253 -3.107588 0.739825 -1.010518 0.309313 0.604826 -39.179367 4.810092 73.567137 83.709295 62.968998 -6.098796 -13.017815 10.261084 0.139219 1.355328 0.068602
-7.538305 52.193889 29.329913 171.810862 -38.578475 -1.540065 4.697516 24.792967 2.722613 0.626055 4.024934 0.491454 0.975031 6.351150 0.820319 3.609899 20.494006 3.158175 1.278665 15.755558 0.283786 2.279291 -6.531281 0.066822 -6.184674 0.317701 -3.154976 -5.251419 -9.353547 1.273257 -89.142250 -43.551696 127.015707 4.119103 8.428839 61.841717 -7.647429 1.453216 1.610356 12.523518 -10.525068 1.013256 89.620918 -37.969409 -133.889738 -0.393658 10.370729 -56.219013 -2.868780 -42.912946 2.603847 -129.623995 85.119645 -124.747128 0.496018 -10.057956 -3.128292 0.743340 -1.014772 0.312131 0.629008 -39.198830 4.791352 73.586541 83.706666 63.005996 -6.089421 -13.015360 10.253238 0.136918 1.351070 0.070868
-7.535046 52.190818 29.331232 171.818563 -38.559808 -1.540612 4.722313 24.824522 2.720276 0.629898 4.030867 0.494481 0.983535 6.366440 0.820575 3.633212 20.512588 3.158061 1.244134 15.747010 0.325898 2.199791 -6.548220 0.157589 -6.184748 0.421299 -3.132942 -5.249417 -9.340887 1.250883 -89.345424 -43.615451 127.270691 4.251337 8.500092 62.188715 -7.654249 1.489668 1.606591 12.228392 -10.548823 0.980502 89.515312 -37.966208 -133.767662 -0.392177 10.392738 -56.153058 -2.878512 -42.933384 2.591275 -129.794398 85.128884 -124.896946 0.499554 -10.068198 -3.147768 0.742268 -1.011806 0.311028 0.675234 -39.217412 4.766809 73.563820 83.697605 63.011416 -6.124941 -13.020491 10.251550 0.159143 1.360767 0.078741
-7.532564 52.186985 29.334128 171.821828 -38.529228 -1.540339 4.748633 24.837903 2.723038 0.633080 4.040119 0.492551 0.991282 6.379678 0.820822 3.654649 20.528506 3.158195 1.209904 15.740617 0.368775 2.120550 -6.561075 0.249767 -6.179947 0.525972 -3.109015 -5.248809 -9.325879 1.231488 -89.530333 -43.690590 127.497850 4.381426 8.569286 62.455916 -7.655202 1.525738 1.596158 11.934994 -10.570938 0.944679 89.396359 -37.977162 -133.600951 -0.398252 10.416494 -56.088366 -2.891577 -42.966002 2.583101 -129.950192 85.142087 -125.035060 0.505109 -10.077417 -3.166343 0.738680 -1.005296 0.307167 0.694678 -39.246383 4.756844 73.618723 83.674029 63.067938 -6.142028 -13.031921 10.248116 0.149393 1.371897 0.085957
-7.529668 52.185122 29.335287 171.832159 -38.511940 -1.551324 4.771349 24.865771 2.731061 0.636533 4.044382 0.491553 0.998543 6.390986 0.820689 3.674896 20.541963 3.157643 1.176603 15.737172 0.413003 2.042593 -6.568472 0.344172 -6.170358 0.629486 -3.080153 -5.247427 -9.309790 1.212247 -89.686624 -43.771338 127.691078 4.506461 8.625345 62.642289 -7.654731 1.563049 1.580389 11.658742 -10.593137 0.910523 89.273248 -38.006213 -133.401675 -0.405467 10.433921 -56.020719 -2.918856 -42.981895 2.582122 -130.147090 85.157122 -125.204609 0.488072 -10.084686 -3.202170 0.757314 -1.003740 0.309427 0.698552 -39.261913 4.759172 73.598093 83.670679 63.051867 -6.160257 -13.038481 10.250800 0.156817 1.380365 0.086157
-7.528614 52.183929 29.335940 171.837285 -38.495332 -1.554252 4.821360 24.929351 2.733245 0.617778 4.008514 0.499764 1.005584 6.400877 0.820505 3.694777 20.553498 3.157029 1.144755 15.701603 0.449648 1.964937 -6.537280 0.449933 -6.161726 0.730771 -3.050677 -5.241709 -9.294508 1.194313 -89.805409 -43.856964 127.842472 4.617952 8.660759 62.755569 -7.673540 1.550373 1.590406 11.418644 -10.556576 0.863137 89.151308 -38.051756 -133.176682 -0.413906 10.441753 -55.939482 -2.965034 -42.995950 2.595406 -130.246453 85.168465 -125.317159 0.515512 -10.091428 -3.210590 0.737715 -0.999900 0.302213 0.704919 -39.276348 4.756577 73.566123 83.672336 63.019859 -6.170276 -13.040664 10.248786 0.160881 1.383037 0.091480
-7.527835 52.183242 29.336548 171.843225 -38.477125 -1.563036 4.843040 24.947278 2.735668 0.616901 4.004132 0.503238 1.016719 6.418871 0.816974 3.713898 20.562593 3.157728 1.114664 15.672775 0.484872 1.893041 -6.504581 0.556704 -6.157492 0.829971 -3.024627 -5.227225 -9.280488 1.177933 -89.888858 -43.951273 127.946987 4.704546 8.680296 62.808982 -7.692889 1.544402 1.598067 11.188384 -10.517074 0.822190 89.035741 -38.102761 -132.935351 -0.428329 10.446085 -55.829736 -2.985962 -43.012445 2.609240 -130.244023 85.168850 -125.315693 0.529310 -10.096143 -3.211448 0.727748 -0.997277 0.300563 0.701124 -39.293669 4.761683 73.549031 83.675112 63.002973 -6.185715 -13.039730 10.247841 0.172679 1.383399 0.094077
-7.526926 52.183150 29.336996 171.850277 -38.458389 -1.580441 4.859752 24.953931 2.745574 0.609599 3.987826 0.510241 1.034888 6.453579 0.804357 3.730814 20.569540 3.157722 1.092247 15.728014 0.545579 1.833866 -6.544432 0.636409 -6.157449 0.927988 -2.997991 -5.195693 -9.268018 1.162575 -89.945507 -44.054105 128.001743 4.764790 8.690150 62.822095 -7.699964 1.595795 1.582605 10.954403 -10.524591 0.803419 88.922925 -38.150678 -132.690032 -0.449138 10.451746 -55.675042 -3.015511 -43.028010 2.629591 -130.243692 85.171970 -125.306881 0.531959 -10.097896 -3.221083 0.732819 -0.998358 0.300545 0.686303 -39.311712 4.775520 73.541638 83.677586 62.993478 -6.184727 -13.041931 10.244654 0.169024 1.383951 0.095757
-7.527490 52.183571 29.336968 171.852210 -38.439645 -1.592810 4.867523 24.942936 2.754806 0.625739 4.018274 0.499864 1.034711 6.454187 0.798349 3.744900 20.576012 3.154238 1.075042 15.750969 0.598439 1.786181 -6.545489 0.726414 -6.160670 1.022335 -2.967180 -5.143698 -9.257663 1.152945 -89.972697 -44.162555 128.001771 4.805983 8.693346 62.812936 -7.700622 1.720689 1.530201 10.722605 -10.597730 0.821619 88.811431 -38.195237 -132.451344 -0.474009 10.456851 -55.472190 -3.048214 -43.043174 2.648155 -130.183585 85.166905 -125.238572 0.539887 -10.098028 -3.245140 0.742943 -1.001019 0.309211 0.674268 -39.329291 4.790694 73.526066 83.686198 62.967259 -6.177335 -13.038974 10.252557 0.161557 1.378083 0.092498
